<?xml version="1.0" standalone="no"?>
<!DOCTYPE svg PUBLIC "-//W3C//DTD SVG 20010904//EN"
 "http://www.w3.org/TR/2001/REC-SVG-20010904/DTD/svg10.dtd">
<svg version="1.0" xmlns="http://www.w3.org/2000/svg"
 width="500.000000pt" height="500.000000pt" viewBox="0 0 500.000000 500.000000"
 preserveAspectRatio="xMidYMid meet">
<metadata>
Created by potrace 1.11, written by Peter Selinger 2001-2013
</metadata>
<g transform="translate(0.000000,500.000000) scale(0.100000,-0.100000)"
fill="#000000" stroke="none">
<path d="M1116 3746 c-93 -52 -175 -101 -184 -109 -9 -10 -12 -24 -9 -39 5
-19 45 -45 185 -121 98 -53 185 -97 193 -97 9 0 25 10 36 23 28 31 123 192
123 209 0 16 -94 173 -123 206 -11 12 -28 22 -36 22 -9 0 -92 -43 -185 -94z
m207 -96 l26 -45 -32 -52 c-18 -29 -36 -53 -40 -53 -4 0 -50 23 -103 52 -62
34 -91 55 -84 62 5 5 49 31 97 57 98 53 93 54 136 -21z"/>
<path d="M3708 3803 c-55 -61 -138 -176 -138 -193 0 -17 83 -132 138 -192 l26
-28 161 0 c144 0 164 2 178 18 26 28 21 43 -38 122 -30 40 -55 78 -55 82 0 5
25 41 55 80 59 75 65 96 37 121 -16 14 -44 17 -178 17 l-160 0 -26 -27z m222
-79 c0 -3 -16 -26 -35 -51 -19 -25 -35 -54 -35 -63 0 -9 16 -38 35 -63 19 -25
35 -48 35 -51 0 -3 -35 -6 -78 -6 l-79 0 -46 59 -46 59 46 61 45 61 79 0 c43
0 79 -3 79 -6z"/>
<path d="M1587 3642 c-22 -24 -21 -45 1 -65 17 -16 94 -17 909 -17 849 0 891
1 906 18 22 24 21 45 -1 65 -17 16 -94 17 -909 17 -849 0 -891 -1 -906 -18z"/>
<path d="M2477 3432 c-25 -28 -24 -172 1 -195 24 -22 45 -21 65 1 25 28 24
172 -1 195 -24 22 -45 21 -65 -1z"/>
<path d="M1807 3282 c-22 -24 -21 -45 1 -64 9 -9 131 -55 270 -103 138 -48
252 -91 252 -95 0 -4 -114 -46 -252 -94 -139 -49 -261 -95 -270 -104 -24 -20
-23 -45 3 -67 23 -22 -3 -29 464 132 l230 80 325 -114 c206 -72 333 -112 347
-108 32 8 41 51 17 75 -11 10 -133 58 -271 106 -139 48 -253 90 -253 94 0 4
114 46 253 94 138 49 260 95 270 104 9 8 17 23 17 32 0 18 -30 50 -47 50 -6 0
-158 -51 -337 -114 l-326 -114 -326 114 c-179 63 -331 114 -338 114 -7 0 -20
-8 -29 -18z"/>
<path d="M1762 2391 c-76 -26 -122 -67 -162 -146 -33 -63 -35 -74 -35 -159 0
-110 25 -175 89 -234 63 -58 118 -75 223 -70 48 2 102 11 118 19 37 17 73 84
58 108 -20 31 -56 24 -122 -24 -43 -31 -112 -34 -158 -5 -81 49 -119 175 -90
294 9 37 26 81 38 97 45 63 132 78 197 34 23 -16 51 -25 74 -25 37 0 38 1 38
38 0 21 -6 46 -13 56 -28 38 -168 47 -255 17z"/>
<path d="M70 2366 c0 -29 4 -34 30 -39 l30 -6 0 -225 0 -225 -27 -3 c-25 -3
-28 -7 -28 -38 l0 -35 180 0 c172 0 182 1 222 24 57 33 87 93 81 161 -6 59
-28 95 -75 122 l-35 21 27 21 c56 45 62 151 12 204 -44 48 -65 52 -247 52
l-170 0 0 -34z m318 -63 c46 -34 42 -112 -8 -138 -16 -8 -55 -15 -90 -15 l-60
0 0 83 c0 46 3 87 8 91 14 15 121 0 150 -21z m-15 -234 c71 -19 102 -75 74
-133 -21 -45 -70 -66 -151 -66 l-66 0 0 98 c0 54 3 102 7 105 10 11 94 8 136
-4z"/>
<path d="M760 2365 c0 -28 4 -35 19 -35 51 0 51 0 51 -189 0 -97 5 -194 11
-216 16 -59 83 -119 149 -135 92 -22 204 3 252 57 41 45 48 85 48 276 0 193 2
201 45 209 15 2 20 11 20 33 l0 30 -110 0 -110 0 -3 -27 c-3 -23 2 -30 25 -39
15 -5 31 -16 35 -22 12 -18 9 -289 -3 -345 -13 -64 -44 -93 -105 -100 -57 -6
-102 15 -130 61 -16 28 -19 56 -22 205 -4 185 0 202 44 202 21 0 24 5 24 35
l0 35 -120 0 -120 0 0 -35z"/>
<path d="M2277 2393 c-4 -3 -7 -19 -7 -35 0 -21 5 -28 19 -28 38 0 42 -19 39
-241 l-3 -214 -23 -3 c-13 -2 -28 -15 -35 -29 -18 -40 10 -53 117 -53 50 0 97
4 104 9 8 5 12 21 10 37 -2 23 -9 30 -33 34 -29 5 -30 7 -33 65 -2 54 0 63 28
98 17 20 35 37 39 37 4 0 53 -63 110 -139 122 -166 123 -168 156 -153 14 7 25
17 25 23 0 7 -47 89 -105 182 l-106 170 59 71 c33 39 78 84 101 100 31 20 41
34 39 50 -3 20 -9 21 -115 24 l-113 3 0 -30 c0 -21 6 -32 20 -36 32 -10 24
-30 -42 -107 -108 -129 -98 -128 -98 -10 l0 103 30 6 c26 5 30 10 30 39 l0 34
-103 0 c-57 0 -107 -3 -110 -7z"/>
<path d="M3004 2386 c-13 -34 3 -56 49 -70 15 -5 17 -25 17 -225 l0 -220 -32
-9 c-28 -7 -33 -13 -33 -38 l0 -29 225 0 225 0 23 49 c13 27 21 55 18 62 -9
23 -76 17 -104 -8 -21 -21 -34 -23 -125 -23 l-102 0 -3 98 -3 97 73 0 c40 0
91 -7 114 -15 54 -18 87 -10 78 19 -34 108 -46 119 -99 93 -21 -10 -60 -17
-95 -17 l-60 0 0 90 0 90 64 0 c48 0 74 -6 110 -25 51 -27 101 -33 109 -12 2
7 -3 32 -12 57 l-17 45 -207 3 c-175 2 -208 0 -213 -12z"/>
<path d="M3675 2389 c-14 -22 4 -55 36 -64 27 -9 42 -31 120 -173 l89 -163
-31 -60 c-21 -42 -29 -72 -27 -97 l3 -37 97 -3 c96 -3 98 -2 104 22 8 33 1 43
-40 50 -19 4 -37 14 -41 24 -4 11 27 85 90 212 103 207 117 230 147 230 14 0
18 8 18 35 l0 35 -115 0 -115 0 0 -29 c0 -23 7 -33 28 -43 34 -17 33 -23 -25
-145 l-46 -98 -53 110 c-29 61 -52 114 -50 120 1 5 13 12 27 15 18 4 25 13 27
38 l3 32 -120 0 c-73 0 -122 -4 -126 -11z"/>
<path d="M4452 2363 c3 -33 7 -38 31 -41 l27 -3 0 -225 0 -224 -30 -6 c-26 -6
-30 -11 -30 -40 l0 -34 223 2 222 3 23 49 c13 26 21 54 18 62 -8 21 -63 17
-97 -8 -26 -20 -46 -24 -130 -26 l-99 -4 0 101 0 101 78 0 c43 0 82 -4 88 -9
15 -14 68 -22 83 -12 12 8 11 17 -5 62 -24 67 -44 80 -85 57 -20 -12 -52 -18
-95 -18 l-64 0 0 91 0 92 79 -5 c59 -3 85 -10 109 -26 31 -23 86 -29 97 -12 4
6 -1 33 -10 60 l-17 50 -209 0 -210 0 3 -37z"/>
<path d="M831 1446 c-8 -9 -11 -55 -9 -137 l3 -124 100 0 c93 0 100 1 100 20
0 18 -8 20 -72 23 l-73 3 0 29 c0 30 1 30 54 30 61 0 88 19 66 45 -8 10 -31
15 -66 15 -51 0 -54 1 -54 25 0 24 2 25 64 25 71 0 99 17 76 45 -17 21 -172
21 -189 1z"/>
<path d="M1618 1445 c-32 -18 -45 -58 -31 -95 8 -22 6 -28 -14 -43 -32 -25
-32 -85 0 -115 28 -26 92 -30 124 -7 18 13 22 13 33 0 16 -20 49 -19 57 0 3 9
-2 24 -11 33 -13 15 -14 23 -4 50 10 25 10 34 0 44 -9 9 -17 7 -35 -10 -21
-19 -26 -21 -36 -8 -10 11 -7 19 14 40 14 14 25 36 25 49 0 57 -69 91 -122 62z
m57 -65 c0 -29 -32 -41 -41 -16 -9 24 4 48 23 44 12 -2 18 -12 18 -28z m-15
-125 c20 -21 21 -25 7 -31 -30 -11 -52 0 -55 29 -4 35 16 36 48 2z"/>
<path d="M2601 1446 c-8 -9 -11 -55 -9 -137 l3 -124 100 0 c93 0 100 1 100 20
0 18 -8 21 -70 25 -68 5 -70 6 -73 33 -3 26 -2 27 47 27 62 0 81 7 81 30 0 23
-19 30 -81 30 -46 0 -49 2 -49 25 0 24 3 25 59 25 72 0 91 6 91 30 0 25 -19
30 -110 30 -54 0 -81 -4 -89 -14z"/>
<path d="M2962 1447 c-21 -24 -113 -251 -108 -264 9 -23 36 -14 54 17 16 28
21 30 78 30 59 0 62 -1 74 -30 13 -32 46 -41 56 -16 6 15 -81 231 -104 259
-18 20 -36 22 -50 4z m52 -134 c7 -21 4 -23 -28 -23 l-35 0 17 45 c16 43 17
44 28 23 6 -13 15 -33 18 -45z"/>
<path d="M3192 1448 c-8 -8 -12 -54 -12 -140 0 -106 3 -130 15 -134 24 -9 45
15 45 51 0 18 8 39 18 48 18 16 21 14 62 -43 33 -45 49 -60 64 -58 35 5 29 35
-19 98 l-46 60 36 31 c47 42 60 66 44 85 -19 23 -29 17 -96 -53 l-63 -68 0 56
c0 48 -12 79 -30 79 -3 0 -11 -5 -18 -12z"/>
<path d="M3814 1452 c-15 -10 -124 -263 -118 -274 12 -20 46 -7 57 22 11 29
14 30 74 30 59 0 63 -2 78 -30 17 -32 36 -38 53 -17 9 10 -1 43 -39 133 -63
147 -72 159 -105 136z m55 -154 c1 -5 -15 -8 -35 -8 -30 0 -35 3 -29 18 4 9
12 30 18 47 l10 29 18 -39 c10 -22 18 -43 18 -47z"/>
<path d="M524 1437 c-2 -7 -3 -67 -2 -133 l3 -119 89 -3 c111 -4 136 9 136 68
0 28 -6 43 -21 54 -20 14 -20 16 -5 37 22 33 20 62 -7 87 -20 19 -35 22 -105
22 -59 0 -84 -4 -88 -13z m146 -52 c19 -23 -5 -45 -51 -45 -37 0 -39 2 -39 30
0 28 2 30 39 30 22 0 44 -6 51 -15z m-6 -105 c53 -20 16 -60 -55 -60 -27 0
-29 3 -29 35 0 32 2 35 29 35 16 0 41 -4 55 -10z"/>
<path d="M1107 1443 c-13 -12 -8 -248 5 -261 19 -19 116 -15 163 8 51 24 77
67 77 126 0 88 -57 134 -168 134 -39 0 -74 -3 -77 -7z m154 -72 c35 -35 38
-77 8 -115 -17 -21 -29 -26 -65 -26 l-44 0 0 85 0 85 36 0 c26 0 43 -8 65 -29z"/>
<path d="M1994 1437 c-2 -7 -3 -67 -2 -133 l3 -119 92 -3 c82 -2 95 0 113 18
26 26 26 74 0 100 -19 19 -19 22 -5 43 20 29 19 49 -6 81 -19 24 -26 26 -105
26 -60 0 -86 -4 -90 -13z m141 -53 c23 -23 2 -44 -46 -44 -37 0 -39 2 -39 30
0 28 3 30 34 30 19 0 42 -7 51 -16z m-1 -104 c53 -20 16 -60 -55 -60 -27 0
-29 3 -29 35 0 32 2 35 29 35 16 0 41 -4 55 -10z"/>
<path d="M2296 1434 c-3 -9 -6 -69 -6 -134 0 -92 3 -120 15 -130 23 -19 45 5
45 51 0 34 3 39 24 39 16 0 36 -15 61 -46 26 -32 43 -44 59 -42 30 4 31 31 1
66 l-26 31 20 20 c39 39 39 103 1 141 -17 17 -34 20 -104 20 -67 0 -85 -3 -90
-16z m158 -66 c15 -25 -11 -48 -63 -55 l-41 -6 0 42 0 42 46 -3 c31 -2 51 -9
58 -20z"/>
<path d="M3477 1443 c-4 -3 -7 -66 -7 -139 0 -113 2 -133 16 -138 28 -11 44
13 44 65 l0 49 64 0 c47 0 65 4 70 15 10 27 -22 45 -80 45 -51 0 -54 1 -54 25
0 24 2 25 64 25 68 0 101 17 90 45 -5 12 -27 15 -103 15 -54 0 -101 -3 -104
-7z"/>
<path d="M4056 1429 c-20 -16 -26 -29 -26 -58 0 -45 17 -63 85 -88 37 -14 50
-24 50 -38 0 -27 -41 -32 -82 -10 -37 20 -63 14 -63 -14 0 -26 56 -51 114 -51
59 0 96 32 96 83 0 46 -16 63 -82 87 -45 17 -58 26 -58 42 0 21 17 22 92 3 21
-6 29 -3 35 10 18 50 -107 76 -161 34z"/>
<path d="M4280 1425 c0 -21 6 -26 40 -31 l40 -7 0 -103 c0 -88 3 -105 18 -112
36 -19 42 -5 42 109 l0 109 28 0 c37 0 67 22 59 44 -5 13 -24 16 -117 16
l-110 0 0 -25z"/>
</g>
</svg>
