<?xml version="1.0" standalone="no"?>
<!DOCTYPE svg PUBLIC "-//W3C//DTD SVG 20010904//EN"
 "http://www.w3.org/TR/2001/REC-SVG-20010904/DTD/svg10.dtd">
<svg version="1.0" xmlns="http://www.w3.org/2000/svg"
 width="500.000000pt" height="500.000000pt" viewBox="0 0 500.000000 500.000000"
 preserveAspectRatio="xMidYMid meet">
<metadata>
Created by potrace 1.11, written by Peter Selinger 2001-2013
</metadata>
<g transform="translate(0.000000,500.000000) scale(0.100000,-0.100000)"
fill="#000000" stroke="none">
<path d="M1120 3749 c-189 -104 -205 -117 -197 -151 5 -19 45 -45 183 -121 97
-53 184 -97 194 -97 9 0 26 10 37 23 31 34 123 189 123 207 0 18 -115 211
-133 222 -24 15 -44 7 -207 -83z m200 -95 l28 -46 -32 -54 c-17 -29 -34 -54
-38 -54 -17 0 -197 105 -190 112 24 24 188 106 196 98 5 -5 22 -30 36 -56z"/>
<path d="M3724 3822 c-24 -15 -154 -195 -154 -212 0 -17 130 -197 154 -212 6
-4 84 -8 173 -8 134 0 164 3 177 16 26 25 19 46 -39 124 -30 40 -55 77 -55 82
0 4 25 40 55 79 58 75 65 97 39 123 -13 13 -43 16 -177 16 -89 0 -167 -4 -173
-8z m206 -98 c0 -3 -16 -26 -35 -51 -19 -25 -35 -54 -35 -63 0 -9 16 -38 35
-63 19 -25 35 -48 35 -51 0 -3 -35 -6 -77 -6 l-78 0 -47 59 -47 59 47 61 47
61 77 0 c43 0 78 -3 78 -6z"/>
<path d="M1586 3644 c-20 -20 -20 -48 0 -68 14 -14 110 -16 908 -16 852 0 894
1 909 18 21 23 22 46 1 66 -14 14 -110 16 -909 16 -799 0 -895 -2 -909 -16z"/>
<path d="M2476 3434 c-12 -11 -16 -36 -16 -99 0 -88 12 -115 49 -115 37 0 51
32 51 118 0 85 -12 112 -50 112 -10 0 -26 -7 -34 -16z"/>
<path d="M1806 3284 c-20 -19 -21 -48 -2 -66 7 -8 129 -54 270 -103 141 -49
256 -92 256 -95 0 -3 -115 -46 -256 -95 -141 -48 -262 -95 -270 -102 -8 -8
-14 -22 -14 -32 0 -20 30 -51 50 -51 7 0 155 50 328 110 173 61 323 110 332
110 10 0 161 -49 335 -110 174 -60 322 -110 330 -110 37 0 58 56 31 83 -8 7
-129 54 -270 102 -141 49 -256 92 -256 95 0 3 115 45 256 95 141 49 262 95
270 103 27 27 6 82 -32 82 -8 0 -157 -49 -330 -110 -174 -60 -324 -110 -334
-110 -10 0 -160 50 -334 110 -173 61 -322 110 -330 110 -8 0 -22 -7 -30 -16z"/>
<path d="M1767 2396 c-136 -49 -215 -181 -205 -340 8 -121 81 -228 177 -261
53 -18 191 -19 240 -2 40 14 68 49 77 94 6 28 3 33 -18 38 -27 7 -58 -5 -108
-41 -30 -22 -43 -25 -88 -22 -68 6 -100 29 -137 103 -41 82 -42 182 -3 267 45
97 134 127 217 72 29 -19 49 -24 77 -22 38 3 39 4 35 38 -5 51 -17 68 -59 80
-51 14 -159 12 -205 -4z"/>
<path d="M70 2366 c0 -30 4 -35 30 -41 l30 -7 0 -223 0 -224 -27 -3 c-24 -3
-28 -8 -31 -40 l-3 -38 173 0 c162 0 176 2 225 24 39 19 57 34 72 65 41 80 19
175 -51 220 l-37 24 23 18 c13 10 31 37 40 59 28 71 -4 148 -76 186 -20 10
-71 14 -198 14 l-170 0 0 -34z m319 -64 c17 -12 27 -31 29 -52 7 -69 -34 -100
-134 -100 l-54 0 0 83 c0 46 3 87 8 91 13 15 124 -2 151 -22z m20 -246 c28
-15 51 -53 51 -85 0 -25 -35 -68 -70 -86 -17 -9 -56 -15 -95 -15 l-65 0 0 98
c0 54 3 102 8 106 11 12 139 -2 171 -18z"/>
<path d="M760 2366 c0 -31 3 -34 35 -40 l35 -7 0 -182 c0 -100 5 -199 11 -219
36 -130 255 -183 378 -91 62 47 71 84 71 295 l0 188 36 15 c30 12 35 19 32 42
l-3 28 -112 3 -113 3 0 -32 c0 -25 5 -33 30 -42 l30 -11 0 -184 c0 -144 -3
-189 -15 -212 -37 -71 -144 -80 -201 -17 -40 43 -46 87 -42 277 l3 134 33 10
c28 8 32 13 32 42 l0 34 -120 0 -120 0 0 -34z"/>
<path d="M2277 2393 c-4 -3 -7 -18 -7 -32 0 -20 7 -29 30 -38 l30 -11 0 -209
c0 -114 -4 -213 -8 -219 -4 -7 -16 -13 -26 -15 -28 -6 -43 -35 -30 -56 10 -15
27 -18 120 -18 l109 0 0 35 c0 30 -4 36 -25 39 -33 4 -40 17 -40 75 0 39 6 56
31 87 17 21 34 39 38 39 4 0 56 -67 116 -150 61 -82 116 -150 123 -150 21 0
52 20 52 33 0 7 -47 88 -105 181 l-104 169 63 76 c35 42 79 85 99 96 29 15 37
26 37 48 l0 27 -115 0 -115 0 0 -31 c0 -22 5 -32 20 -36 11 -3 20 -11 20 -19
0 -10 -95 -129 -151 -189 -5 -5 -9 33 -9 92 l0 101 30 7 c26 6 30 11 30 41 l0
34 -103 0 c-57 0 -107 -3 -110 -7z"/>
<path d="M3007 2393 c-4 -3 -7 -19 -7 -34 0 -24 6 -30 33 -37 l32 -8 3 -218 2
-217 -35 -15 c-26 -11 -35 -20 -35 -39 0 -14 8 -29 19 -35 21 -11 354 -12 406
-1 24 5 35 17 53 55 13 26 21 54 18 62 -9 23 -76 18 -103 -8 -21 -20 -35 -22
-126 -22 l-102 -1 -3 98 -3 97 78 0 c49 -1 87 -6 103 -15 28 -16 59 -19 78 -7
9 7 9 19 -4 58 -9 27 -21 55 -27 62 -13 16 -49 15 -73 -3 -12 -9 -42 -14 -81
-15 l-63 0 0 91 0 92 75 -6 c52 -4 86 -12 110 -27 22 -13 47 -20 67 -18 37 3
40 20 14 83 l-15 35 -204 0 c-112 0 -207 -3 -210 -7z"/>
<path d="M3674 2386 c-11 -28 1 -50 32 -58 27 -7 41 -26 108 -148 107 -193
104 -184 72 -257 -17 -38 -26 -73 -24 -94 l3 -34 100 0 100 0 0 30 c0 25 -5
31 -35 39 -46 13 -51 22 -35 65 18 52 174 363 193 384 8 9 23 17 34 17 14 0
18 8 18 35 l0 35 -115 0 -115 0 0 -30 c0 -23 6 -33 25 -40 15 -6 25 -17 25
-28 0 -11 -21 -64 -47 -118 l-46 -99 -52 110 c-29 61 -50 115 -48 122 3 6 14
13 26 15 17 2 23 11 25 36 l3 32 -121 0 c-96 0 -122 -3 -126 -14z"/>
<path d="M4452 2363 c2 -30 8 -38 28 -43 l25 -6 3 -221 2 -221 -30 -7 c-26 -6
-30 -11 -30 -40 0 -21 6 -35 16 -39 20 -8 360 -6 399 3 23 4 35 17 53 51 32
65 30 80 -14 80 -21 0 -49 -9 -67 -22 -26 -19 -48 -23 -129 -26 l-98 -4 0 101
0 101 74 0 c46 0 84 -6 102 -15 37 -19 73 -19 80 0 8 20 -27 105 -48 119 -13
7 -26 6 -53 -7 -21 -10 -60 -17 -96 -17 l-60 0 3 88 3 87 77 -1 c60 -1 82 -6
106 -23 31 -22 86 -28 97 -11 4 6 -1 33 -10 60 l-17 50 -209 0 -210 0 3 -37z"/>
<path d="M543 1450 c-22 -9 -23 -14 -23 -134 0 -114 2 -126 19 -136 40 -21
169 -6 198 23 22 22 19 74 -6 101 -19 20 -20 24 -6 36 19 15 19 59 0 83 -23
32 -132 47 -182 27z m122 -64 c29 -21 3 -46 -46 -46 -37 0 -39 2 -39 30 0 27
3 30 33 30 18 0 42 -6 52 -14z m22 -122 c9 -23 -10 -36 -61 -41 -46 -6 -46 -6
-46 26 0 31 1 31 50 31 37 0 52 -4 57 -16z"/>
<path d="M831 1446 c-8 -9 -11 -55 -9 -137 l3 -124 98 -3 c80 -2 98 0 103 13
12 30 -15 45 -82 45 -62 0 -64 1 -64 25 0 24 3 25 54 25 56 0 83 17 72 45 -4
11 -21 15 -66 15 -57 0 -60 1 -60 25 0 24 3 25 59 25 72 0 91 6 91 30 0 25
-19 30 -110 30 -54 0 -81 -4 -89 -14z"/>
<path d="M1123 1450 c-22 -9 -23 -14 -23 -133 0 -82 4 -127 12 -135 19 -19
117 -14 165 7 97 45 104 176 12 242 -28 21 -134 33 -166 19z m144 -85 c50 -57
11 -135 -67 -135 l-40 0 0 86 0 87 42 -6 c29 -4 50 -14 65 -32z"/>
<path d="M1623 1450 c-31 -13 -46 -47 -39 -90 4 -28 2 -41 -10 -51 -38 -31
-36 -95 4 -125 23 -18 93 -17 119 1 18 13 22 13 33 0 16 -20 49 -19 57 0 3 9
-2 24 -12 34 -15 17 -15 22 -2 48 25 50 -7 75 -42 32 -15 -19 -18 -19 -29 -6
-11 13 -9 20 13 41 29 29 32 65 8 95 -21 24 -68 35 -100 21z m52 -70 c0 -31
-31 -39 -40 -11 -8 26 2 43 23 39 11 -2 17 -13 17 -28z m-15 -125 c20 -21 21
-25 7 -31 -30 -11 -52 0 -55 29 -4 35 16 36 48 2z"/>
<path d="M2008 1450 c-16 -10 -18 -28 -18 -135 0 -113 2 -125 19 -135 43 -22
175 -5 198 26 21 28 16 81 -8 98 -20 14 -20 16 -5 37 42 61 3 106 -99 114 -43
4 -77 2 -87 -5z m120 -59 c8 -5 12 -17 10 -27 -2 -14 -13 -20 -46 -22 -41 -3
-42 -2 -42 27 0 28 3 31 33 31 17 0 38 -4 45 -9z m29 -127 c9 -23 -10 -36 -61
-41 -46 -6 -46 -6 -46 26 0 31 1 31 50 31 37 0 52 -4 57 -16z"/>
<path d="M2313 1450 c-22 -9 -23 -14 -23 -138 0 -103 3 -132 15 -142 23 -19
45 5 45 51 0 34 3 39 24 39 16 0 36 -15 61 -46 26 -32 43 -44 59 -42 30 4 31
31 1 66 l-26 31 26 25 c31 31 34 92 7 126 -27 33 -138 50 -189 30z m138 -81
c15 -29 -3 -46 -58 -55 l-43 -7 0 42 0 41 45 0 c35 0 47 -4 56 -21z"/>
<path d="M2601 1446 c-8 -9 -11 -53 -9 -137 l3 -124 100 0 c90 0 100 2 103 19
6 27 -15 36 -85 36 -60 0 -63 1 -63 25 0 23 3 25 53 25 60 0 80 10 75 36 -3
16 -14 20 -66 22 -58 3 -62 4 -62 27 0 24 3 25 63 25 70 0 91 9 85 36 -3 17
-14 19 -94 22 -69 2 -94 -1 -103 -12z"/>
<path d="M2956 1438 c-29 -44 -107 -240 -102 -254 10 -25 43 -16 56 16 12 29
15 30 75 30 61 0 63 -1 74 -30 11 -33 47 -42 57 -15 7 17 -92 255 -110 267
-19 13 -35 9 -50 -14z m50 -103 c19 -46 19 -45 -20 -45 l-34 0 15 40 c9 22 18
40 20 40 2 0 11 -16 19 -35z"/>
<path d="M3191 1446 c-8 -9 -11 -56 -9 -142 3 -117 5 -129 22 -132 23 -5 36
14 36 52 0 16 7 38 16 48 16 17 19 15 62 -43 33 -45 50 -59 66 -57 35 5 30 35
-18 96 l-45 59 47 46 c38 39 45 50 36 64 -20 32 -36 25 -94 -36 -32 -33 -61
-61 -64 -61 -3 0 -6 22 -6 48 0 62 -23 89 -49 58z"/>
<path d="M3492 1450 c-22 -9 -23 -12 -20 -147 l3 -138 25 0 c23 0 25 4 30 55
l5 55 62 3 c42 2 63 7 67 17 10 27 -23 45 -80 45 -51 0 -54 1 -54 25 0 24 2
25 64 25 45 0 69 5 80 15 19 19 11 41 -17 49 -33 9 -139 6 -165 -4z"/>
<path d="M3813 1452 c-15 -10 -124 -262 -117 -273 12 -19 44 -8 59 21 15 28
19 30 75 30 56 0 60 -2 75 -30 17 -32 49 -40 59 -15 5 14 -84 236 -106 262
-12 15 -27 16 -45 5z m25 -160 c-16 -2 -32 -2 -34 1 -2 2 4 23 13 46 l17 43
17 -44 17 -43 -30 -3z"/>
<path d="M4298 1453 c-45 -12 -18 -63 33 -63 l29 0 0 -104 c0 -107 9 -133 43
-120 21 8 27 36 27 136 l0 87 31 3 c43 4 61 34 35 54 -19 13 -155 19 -198 7z"/>
<path d="M4056 1429 c-20 -16 -26 -29 -26 -58 0 -45 17 -63 85 -88 37 -14 50
-24 50 -38 0 -27 -35 -31 -80 -10 -41 20 -65 14 -65 -15 0 -27 53 -50 115 -50
57 0 95 32 95 80 0 49 -16 67 -81 91 -94 34 -68 70 33 44 21 -6 29 -3 35 10
18 50 -107 76 -161 34z"/>
</g>
</svg>
